<svg width="47" height="47" viewBox="0 0 47 47" fill="none" xmlns="http://www.w3.org/2000/svg">
<circle cx="23.5" cy="23.5009" r="22.5" fill="#D78D43" stroke="black" stroke-width="2"/>
<path d="M23.7487 28.9914L23.0416 28.2843L22.3345 28.9914L15.9706 35.3553C14.799 36.5269 12.8995 36.5269 11.7279 35.3553C10.5564 34.1838 10.5563 32.2843 11.7279 31.1127L18.0919 24.7487L18.799 24.0416L18.0919 23.3345L11.7279 16.9706C10.5564 15.799 10.5564 13.8995 11.7279 12.7279C12.8995 11.5564 14.799 11.5564 15.9706 12.7279L22.3345 19.0919L23.0416 19.799L23.7487 19.0919L30.1127 12.7279C31.2843 11.5564 33.1838 11.5563 34.3553 12.7279C35.5269 13.8995 35.5269 15.799 34.3553 16.9706L27.9914 23.3345L27.2843 24.0416L27.9914 24.7487L34.3553 31.1127C35.5269 32.2843 35.5269 34.1838 34.3553 35.3553C33.1838 36.5269 31.2843 36.5269 30.1127 35.3553L23.7487 28.9914Z" fill="black" stroke="white" stroke-width="2"/>
</svg>
