<svg width="46" height="46" viewBox="0 0 46 46" fill="none" xmlns="http://www.w3.org/2000/svg">
<circle cx="23" cy="23.0009" r="22" fill="#D78D43" stroke="black" stroke-width="2"/>
<path d="M23.2585 28.3595L22.5514 27.6524L21.8443 28.3595L15.6157 34.5881C14.4774 35.7264 12.6318 35.7264 11.4934 34.5881C10.3551 33.4497 10.3551 31.6041 11.4934 30.4658L17.722 24.2372L18.4291 23.5301L17.722 22.823L11.4934 16.5944C10.3551 15.4561 10.3551 13.6105 11.4934 12.4722C12.6318 11.3338 14.4774 11.3338 15.6157 12.4722L21.8443 18.7007L22.5514 19.4078L23.2585 18.7007L29.487 12.4722C30.6254 11.3338 32.471 11.3338 33.6093 12.4722C34.7477 13.6105 34.7477 15.4561 33.6093 16.5944L27.3808 22.823L26.6737 23.5301L27.3808 24.2372L33.6093 30.4658C34.7477 31.6041 34.7477 33.4497 33.6093 34.5881C32.471 35.7264 30.6254 35.7264 29.487 34.5881L23.2585 28.3595Z" fill="black" stroke="white" stroke-width="2"/>
</svg>
