<?xml version="1.0" encoding="iso-8859-1"?>
<!-- Uploaded to: SVG Repo, www.svgrepo.com, Generator: SVG Repo Mixer Tools -->
<!DOCTYPE svg PUBLIC "-//W3C//DTD SVG 1.1//EN" "http://www.w3.org/Graphics/SVG/1.1/DTD/svg11.dtd">
<svg fill="#000000" version="1.1" id="Capa_1" xmlns="http://www.w3.org/2000/svg" xmlns:xlink="http://www.w3.org/1999/xlink"
	 width="80px" height="80px" viewBox="0 0 912.191 912.191"
	 xml:space="preserve">
<g>
	<path d="M248.709,421.475c28.995,0,52.5-23.505,52.5-52.5s-23.505-52.5-52.5-52.5h-58.165
		c20.598-38.935,49.764-73.439,85.14-100.095c52.277-39.393,114.623-60.214,180.296-60.214c34.612,0,68.514,5.831,100.764,17.331
		c31.17,11.115,60.16,27.273,86.16,48.024c52.043,41.536,89.225,99.817,104.695,164.109c5.789,24.063,27.293,40.231,51,40.229
		c4.062,0,8.199-0.477,12.324-1.469c28.189-6.783,45.545-35.135,38.762-63.325c-10.559-43.872-28.305-85.42-52.748-123.492
		c-23.996-37.372-53.783-70.384-88.535-98.119c-35.098-28.012-74.258-49.833-116.393-64.858
		c-43.6-15.547-89.367-23.431-136.03-23.431c-44.688,0-88.618,7.244-130.576,21.529c-40.568,13.813-78.557,33.942-112.908,59.827
		c-33.947,25.58-63.55,56.175-87.985,90.936c-6.982,9.932-13.478,20.147-19.511,30.605v-83.971c0-28.995-23.505-52.5-52.5-52.5
		S0,141.097,0,170.092v198.884c0,28.995,23.505,52.5,52.5,52.5L248.709,421.475L248.709,421.475z"/>
	<path d="M859.691,490.717H663.48c-28.994,0-52.5,23.506-52.5,52.5c0,28.996,23.506,52.5,52.5,52.5h58.027
		c-23.443,44.539-57.707,82.494-100.008,110.547c-49.053,32.531-106.244,49.738-165.397,49.762
		c-34.575-0.012-68.441-5.842-100.657-17.33c-31.172-11.115-60.16-27.273-86.161-48.025
		c-52.044-41.535-89.225-99.816-104.694-164.107c-6.782-28.189-35.132-45.543-63.325-38.762
		c-28.19,6.783-45.544,35.135-38.761,63.324c10.556,43.873,28.303,85.422,52.748,123.492c23.995,37.373,53.782,70.385,88.534,98.119
		c35.098,28.014,74.258,49.834,116.393,64.859c43.477,15.502,89.107,23.381,135.634,23.426c0.056,0,0.109,0.004,0.166,0.004
		c0.042,0,0.083,0,0.125,0c0.036,0,0.07,0,0.106,0c0.043,0,0.086-0.002,0.13-0.002c79.779-0.07,156.951-23.322,223.195-67.256
		c52.834-35.039,96.381-81.557,127.656-135.996v84.33c0,28.994,23.504,52.5,52.5,52.5c28.994,0,52.5-23.506,52.5-52.5V543.217
		C912.191,514.223,888.686,490.717,859.691,490.717z"/>
</g>
</svg>