<svg width="40" height="38" viewBox="0 0 40 38" fill="none" xmlns="http://www.w3.org/2000/svg">
<path d="M20.7545 1.48172L26.2807 10.0855C26.6935 10.7282 27.3325 11.1925 28.0713 11.3865L37.9617 13.9835C38.7001 14.1774 38.9902 15.0702 38.5068 15.6611L32.0318 23.5756C31.5481 24.1668 31.3041 24.918 31.3479 25.6805L31.9342 35.8894C31.978 36.6515 31.2185 37.2033 30.5072 36.9262L20.9792 33.2138C20.2675 32.9365 19.4776 32.9365 18.7659 33.2138L9.23787 36.9262C8.52659 37.2033 7.76709 36.6515 7.81086 35.8894L8.39722 25.6805C8.44102 24.918 8.19694 24.1668 7.71329 23.5756L1.23828 15.6611C0.754905 15.0702 1.04501 14.1774 1.78335 13.9835L11.6738 11.3865C12.4125 11.1925 13.0516 10.7282 13.4643 10.0855L18.9906 1.48172C19.4031 0.839426 20.3419 0.839427 20.7545 1.48172Z" fill="#E6E605" stroke="black" stroke-width="2"/>
</svg>
