<svg width="47" height="47" viewBox="0 0 47 47" fill="none" xmlns="http://www.w3.org/2000/svg">
<path d="M38.2129 5.36607V0.4375H8.65179V5.36607H0.4375V9.26786C0.4375 12.5536 1.41295 15.715 3.18518 18.1608C4.55388 20.0501 6.69371 21.3542 8.6179 21.9815C9.17647 24.989 10.692 27.8475 13.7713 30.1783C16.0303 31.889 18.7461 33.1427 21.1786 33.655V41.9196H13.5804V46.4375H33.2946V41.9196H25.6964V33.655C28.1289 33.1417 30.8437 31.889 33.1037 30.1783C36.184 27.8475 37.6985 24.989 38.2571 21.9815C40.1813 21.3542 42.3211 20.0501 43.6898 18.1608C45.4621 15.715 46.4375 12.5536 46.4375 9.26786V5.36607H38.2129ZM6.84464 15.5107C5.74804 14.0034 5.08165 11.9786 4.97179 9.88393H8.65179V16.8014C8.24723 16.6843 7.32518 16.173 6.84464 15.5107ZM40.0304 15.5107C39.558 16.1894 38.8393 16.8024 38.2232 16.8024C38.2232 14.5024 38.2232 12.0494 38.2181 9.88393H41.9042C41.7934 11.9786 41.0982 13.9808 40.0304 15.5107Z" fill="white"/>
</svg>
