<svg width="75" height="75" viewBox="0 0 75 75" fill="none" xmlns="http://www.w3.org/2000/svg">
<path d="M52.958 18.5938V13.4375H22.0312V18.5938H13.4375V22.6758C13.4375 26.1133 14.458 29.4208 16.3121 31.9796C17.744 33.9562 19.9827 35.3204 21.9958 35.9768C22.5802 39.1231 24.1657 42.1138 27.3873 44.5522C29.7506 46.3419 32.5919 47.6535 35.1367 48.1896V56.8359H27.1875V61.5625H47.8125V56.8359H39.8633V48.1896C42.4081 47.6524 45.2483 46.3419 47.6127 44.5522C50.8354 42.1138 52.4198 39.1231 53.0042 35.9768C55.0173 35.3204 57.256 33.9562 58.6879 31.9796C60.542 29.4208 61.5625 26.1133 61.5625 22.6758V18.5938H52.958ZM20.1406 29.207C18.9934 27.6301 18.2962 25.5117 18.1813 23.3203H22.0312V30.5573C21.608 30.4349 20.6434 29.8999 20.1406 29.207ZM54.8594 29.207C54.3652 29.9171 53.6133 30.5584 52.9688 30.5584C52.9688 28.1521 52.9688 25.5858 52.9634 23.3203H56.8198C56.7038 25.5117 55.9766 27.6064 54.8594 29.207Z" fill="white"/>
</svg>
