<svg width="90" height="81" viewBox="0 0 90 81" fill="none" xmlns="http://www.w3.org/2000/svg">
<rect x="1" y="1" width="88" height="68" rx="9" fill="#D78D43" stroke="black" stroke-width="2"/>
<path fill-rule="evenodd" clip-rule="evenodd" d="M45.0455 14C51.8988 14 57.4545 17.6326 57.4545 22.1136V27.3636H60.3182C62.9541 27.3636 65.0909 29.5005 65.0909 32.1364V51.2273C65.0909 53.8632 62.9541 56 60.3182 56H29.7727C27.1368 56 25 53.8632 25 51.2273V32.1364C25 29.5005 27.1368 27.3636 29.7727 27.3636H32.6364V22.1136C32.6364 17.6326 38.1921 14 45.0455 14ZM53.6364 22.1136V27.3636H36.4545V22.1136C36.4545 19.4777 40.3008 17.3409 45.0455 17.3409C49.7901 17.3409 53.6364 19.4777 53.6364 22.1136ZM48.8636 39.7727C48.8636 41.186 48.0958 42.4199 46.9545 43.0801V47.4091C46.9545 48.4635 46.0998 49.3182 45.0455 49.3182C43.9911 49.3182 43.1364 48.4635 43.1364 47.4091V43.0801C41.9951 42.4199 41.2273 41.186 41.2273 39.7727C41.2273 37.664 42.9367 35.9545 45.0455 35.9545C47.1542 35.9545 48.8636 37.664 48.8636 39.7727Z" fill="black"/>
</svg>
