<svg width="90" height="81" viewBox="0 0 90 81" fill="none" xmlns="http://www.w3.org/2000/svg">
<rect x="1" y="1" width="88" height="68" rx="9" fill="#D78D43" stroke="black" stroke-width="2"/>
<path d="M17.8414 54.1603L20.8512 58.8463C21.2575 59.4788 21.8864 59.9358 22.6135 60.1267L28.0002 61.5411C28.7046 61.7261 28.9813 62.5779 28.5202 63.1416L24.9936 67.4521C24.5176 68.0339 24.2774 68.7733 24.3205 69.5238L24.6399 75.0839C24.6816 75.811 23.9571 76.3374 23.2785 76.073L18.0891 74.0511C17.3887 73.7782 16.6113 73.7782 15.9109 74.0511L10.7215 76.073C10.0429 76.3374 9.31837 75.811 9.36013 75.0839L9.67948 69.5238C9.72258 68.7733 9.48236 68.0339 9.00636 67.4521L5.47981 63.1416C5.01866 62.5779 5.29543 61.7261 5.99982 61.5411L11.3865 60.1267C12.1136 59.9358 12.7425 59.4788 13.1488 58.8463L16.1586 54.1603C16.5522 53.5476 17.4478 53.5476 17.8414 54.1603Z" fill="#E6E605" stroke="black" stroke-width="2"/>
<path d="M45.8414 51.1603L48.8512 55.8463C49.2575 56.4788 49.8864 56.9358 50.6135 57.1267L56.0002 58.5411C56.7046 58.7261 56.9813 59.5779 56.5202 60.1416L52.9936 64.4521C52.5176 65.0339 52.2774 65.7733 52.3205 66.5238L52.6399 72.0839C52.6816 72.811 51.9571 73.3374 51.2785 73.073L46.0891 71.0511C45.3887 70.7782 44.6113 70.7782 43.9109 71.0511L38.7215 73.073C38.0429 73.3374 37.3184 72.811 37.3601 72.0839L37.6795 66.5238C37.7226 65.7733 37.4824 65.0339 37.0064 64.4521L33.4798 60.1416C33.0187 59.5779 33.2954 58.7261 33.9998 58.5411L39.3865 57.1267C40.1136 56.9358 40.7425 56.4788 41.1488 55.8463L44.1586 51.1603C44.5522 50.5476 45.4478 50.5476 45.8414 51.1603Z" fill="#DBDBDB" stroke="black" stroke-width="2"/>
<path d="M73.8414 54.1603L76.8512 58.8463C77.2575 59.4788 77.8864 59.9358 78.6135 60.1267L84.0002 61.5411C84.7046 61.7261 84.9813 62.5779 84.5202 63.1416L80.9936 67.4521C80.5176 68.0339 80.2774 68.7733 80.3205 69.5238L80.6399 75.0839C80.6816 75.811 79.9571 76.3374 79.2785 76.073L74.0891 74.0511C73.3887 73.7782 72.6113 73.7782 71.9109 74.0511L66.7215 76.073C66.0429 76.3374 65.3184 75.811 65.3601 75.0839L65.6795 69.5238C65.7226 68.7733 65.4824 68.0339 65.0064 67.4521L61.4798 63.1416C61.0187 62.5779 61.2954 61.7261 61.9998 61.5411L67.3865 60.1267C68.1136 59.9358 68.7425 59.4788 69.1488 58.8463L72.1586 54.1603C72.5522 53.5476 73.4478 53.5476 73.8414 54.1603Z" fill="#DBDBDB" stroke="black" stroke-width="2"/>
</svg>
