<svg width="75" height="75" viewBox="0 0 75 75" fill="none" xmlns="http://www.w3.org/2000/svg">
<path d="M42.1667 31.8258V25.0833H52.5V14.75H37V26.6591L42.1667 31.8258ZM17.3925 14.3883L13.75 18.0308L37 41.2808V42.0041C34.5717 40.6091 31.575 40.0666 28.3975 41.1775C24.9358 42.4175 22.275 45.4916 21.655 49.1083C21.3684 50.7357 21.4755 52.408 21.9674 53.9855C22.4593 55.5629 23.3218 56.9997 24.4826 58.1757C25.6434 59.3517 27.0689 60.2327 28.6398 60.7451C30.2108 61.2574 31.8816 61.3863 33.5125 61.1208C38.5758 60.32 42.1667 55.67 42.1667 50.5291V46.4475L56.9692 61.25L60.6117 57.6075L37 33.97L17.3925 14.3883Z" fill="white"/>
</svg>
